# Blender v2.80 (sub 75) OBJ File: ''
# www.blender.org
mtllib untitled.mtl
o Plane
v -1.000000 0.000000 1.400000
v 1.000000 0.000000 1.400000
v -1.000000 0.000000 -1.400000
v 1.000000 0.000000 -1.400000
v -0.800000 0.000000 -1.200000
v -0.800000 0.000000 0.000000
v 0.800000 0.000000 0.000000
v 0.800000 0.000000 -1.200000
vt 0.100000 0.071429
vt 0.100000 0.928572
vt 0.000000 1.000000
vt 0.000000 0.000000
vt 1.000000 0.000000
vt 0.900000 0.071429
vt 1.000000 1.000000
vt 0.900000 0.928571
vn 0.0000 1.0000 0.0000
usemtl None
s off
f 6/1/1 5/2/1 3/3/1
f 6/1/1 3/3/1 1/4/1
f 6/1/1 2/5/1 7/6/1
f 7/6/1 4/7/1 8/8/1
f 5/2/1 4/7/1 3/3/1
f 6/1/1 1/4/1 2/5/1
f 7/6/1 2/5/1 4/7/1
f 5/2/1 8/8/1 4/7/1
