# Blender v2.80 (sub 75) OBJ File: ''
# www.blender.org
mtllib leaves.mtl
o Plane
v -0.267241 -0.101883 -0.005817
v -0.208531 -0.640836 0.618137
v 0.555777 -0.100975 -0.082475
v 0.614488 -0.639929 0.541479
v -0.873196 -0.161105 0.590417
v 0.010293 -0.342079 0.602557
v -0.778919 0.245506 -0.209102
v 0.104569 0.064532 -0.196962
v 1.438003 0.232458 -0.077724
v 0.474304 0.174683 -0.338388
v 1.276383 -0.418410 0.664065
v 0.312684 -0.476186 0.403400
v 0.781795 0.246685 -0.696340
v -0.413478 0.322532 -0.735478
v 0.699469 -0.632961 0.113232
v -0.495805 -0.557115 0.074094
v -0.980542 0.525799 -0.925998
v -0.728939 -0.075828 -0.286062
v -0.161305 0.446491 -1.322657
v 0.090298 -0.155135 -0.682720
v 0.210214 0.075735 -0.344212
v 1.147894 -0.174265 -0.102849
v 0.557680 0.760036 -0.985304
v 1.495360 0.510036 -0.743941
v -0.344158 0.384102 -0.703105
v -1.291196 0.475437 -0.395248
v -0.200515 -0.352845 -0.042593
v -1.147554 -0.261510 0.265264
v 0.506010 0.696012 -0.813831
v -0.355954 0.711824 -0.778719
v 0.516449 0.034687 -0.259751
v -0.345515 0.050498 -0.224638
vt 0.025095 0.025095
vt 0.974905 0.974905
vt 0.025095 0.974905
vt 1.025095 0.025095
vt 1.974905 0.974905
vt 1.025095 0.974905
vt 0.025095 0.025095
vt 0.974905 0.974905
vt 0.974904 0.025095
vt 1.025095 0.025095
vt 1.974905 0.974905
vt 1.974905 0.025095
vt 0.974905 0.025095
vt 1.974905 0.025095
vt 0.025095 0.974905
vt 1.025095 0.974905
vt 0.025095 0.025095
vt 0.974905 0.974905
vt 0.025095 0.974905
vt 1.974905 0.025095
vt 1.025095 0.974905
vt 1.974905 0.974905
vt 1.974905 0.025095
vt 1.025095 0.974905
vt 1.025095 0.025095
vt 0.974905 0.025095
vt 0.025095 0.974905
vt 0.025095 0.025095
vt 0.974905 0.025095
vt 1.025095 0.025095
vt 1.974905 0.974905
vt 0.974905 0.974905
vn 0.0596 0.7582 0.6493
vn 0.1718 0.8698 0.4626
vn -0.2125 0.7570 0.6179
vn 0.0188 0.6761 0.7366
vn 0.3467 0.7476 0.5665
vn -0.0049 0.6850 0.7285
vn 0.2872 0.6698 0.6848
vn 0.0430 0.6420 0.7655
usemtl None
s off
f 2/1/1 3/2/1 1/3/1
f 5/4/2 8/5/2 7/6/2
f 9/7/3 12/8/3 11/9/3
f 13/10/4 16/11/4 15/12/4
f 2/1/1 4/13/1 3/2/1
f 5/4/2 6/14/2 8/5/2
f 9/7/3 10/15/3 12/8/3
f 13/10/4 14/16/4 16/11/4
f 18/17/5 19/18/5 17/19/5
f 21/20/6 24/21/6 23/22/6
f 25/23/7 28/24/7 27/25/7
f 29/26/8 32/27/8 31/28/8
f 18/17/5 20/29/5 19/18/5
f 21/20/6 22/30/6 24/21/6
f 25/23/7 26/31/7 28/24/7
f 29/26/8 30/32/8 32/27/8
